{
  "accessors": [
    {
      "bufferView": 2,
      "componentType": 5126,
      "count": 6948,
      "max": [
        4.475141525268555,
        25.900005340576172,
        4.46635103225708
      ],
      "min": [
        -5.742491722106934,
        -1.1920928955078125e-06,
        -4.4663519859313965
      ],
      "type": "VEC3"
    },
    {
      "bufferView": 2,
      "byteOffset": 83376,
      "componentType": 5126,
      "count": 6948,
      "max": [
        0.9999948740005493,
        1.0,
        0.9999980330467224
      ],
      "min": [
        -0.9999948740005493,
        -1.0,
        -0.9999951720237732
      ],
      "type": "VEC3"
    },
    {
      "bufferView": 3,
      "componentType": 5126,
      "count": 6948,
      "max": [
        0.9999974370002747,
        0.9999999403953552,
        0.9999977946281433,
        1.0
      ],
      "min": [
        -0.9999946355819702,
        -0.9999299049377441,
        -0.9999954700469971,
        -1.0
      ],
      "type": "VEC4"
    },
    {
      "bufferView": 1,
      "componentType": 5126,
      "count": 6948,
      "max": [
        0.99800705909729,
        0.998046875
      ],
      "min": [
        0.001953125,
        0.001953125
      ],
      "type": "VEC2"
    },
    {
      "bufferView": 0,
      "componentType": 5125,
      "count": 34242,
      "type": "SCALAR"
    }
  ],
  "asset": {
    "extras": {
      "author": "Speed (https://sketchfab.com/Speeedd)",
      "license": "CC-BY-4.0 (http://creativecommons.org/licenses/by/4.0/)",
      "source": "https://sketchfab.com/3d-models/thermal-bottle-70abae7474164cc7b0ebcac2bd7f74d8",
      "title": "Thermal bottle"
    },
    "generator": "Sketchfab-15.77.0",
    "version": "2.0"
  },
  "bufferViews": [
    {
      "buffer": 0,
      "byteLength": 136968,
      "name": "floatBufferViews",
      "target": 34963
    },
    {
      "buffer": 0,
      "byteLength": 55584,
      "byteOffset": 136968,
      "byteStride": 8,
      "name": "floatBufferViews",
      "target": 34962
    },
    {
      "buffer": 0,
      "byteLength": 166752,
      "byteOffset": 192552,
      "byteStride": 12,
      "name": "floatBufferViews",
      "target": 34962
    },
    {
      "buffer": 0,
      "byteLength": 111168,
      "byteOffset": 359304,
      "byteStride": 16,
      "name": "floatBufferViews",
      "target": 34962
    }
  ],
  "buffers": [
    {
      "byteLength": 470472,
      "uri": "scene.bin"
    }
  ],
  "images": [
    {
      "uri": "textures/ASSET_MAT_MR_baseColor.png"
    },
    {
      "uri": "textures/ASSET_MAT_MR_metallicRoughness.png"
    },
    {
      "uri": "textures/ASSET_MAT_MR_normal.png"
    }
  ],
  "materials": [
    {
      "doubleSided": true,
      "name": "ASSET_MAT_MR",
      "normalTexture": {
        "index": 2
      },
      "occlusionTexture": {
        "index": 1
      },
      "pbrMetallicRoughness": {
        "baseColorTexture": {
          "index": 0
        },
        "metallicRoughnessTexture": {
          "index": 1
        }
      }
    }
  ],
  "meshes": [
    {
      "name": "ASSET_ASSET_MAT_MR_0",
      "primitives": [
        {
          "attributes": {
            "NORMAL": 1,
            "POSITION": 0,
            "TANGENT": 2,
            "TEXCOORD_0": 3
          },
          "indices": 4,
          "material": 0,
          "mode": 4
        }
      ]
    }
  ],
  "nodes": [
    {
      "children": [
        1
      ],
      "matrix": [
        1.0,
        0.0,
        0.0,
        0.0,
        0.0,
        2.220446049250313e-16,
        -1.0,
        0.0,
        0.0,
        1.0,
        2.220446049250313e-16,
        0.0,
        0.0,
        0.0,
        0.0,
        1.0
      ],
      "name": "Sketchfab_model"
    },
    {
      "children": [
        2
      ],
      "matrix": [
        0.009999999776482582,
        0.0,
        0.0,
        0.0,
        0.0,
        0.0,
        0.009999999776482582,
        0.0,
        0.0,
        -0.009999999776482582,
        0.0,
        0.0,
        0.0,
        0.0,
        0.0,
        1.0
      ],
      "name": "ASSET.fbx"
    },
    {
      "children": [
        3
      ],
      "name": "RootNode"
    },
    {
      "children": [
        4
      ],
      "matrix": [
        1.0,
        0.0,
        0.0,
        0.0,
        0.0,
        0.9999999999999867,
        1.6292067073209113e-07,
        0.0,
        0.0,
        -1.6292067073209113e-07,
        0.9999999999999867,
        0.0,
        0.0,
        0.0,
        0.0,
        1.0
      ],
      "name": "ASSET"
    },
    {
      "mesh": 0,
      "name": "ASSET_ASSET_MAT_MR_0"
    }
  ],
  "samplers": [
    {
      "magFilter": 9729,
      "minFilter": 9987,
      "wrapS": 10497,
      "wrapT": 10497
    }
  ],
  "scene": 0,
  "scenes": [
    {
      "name": "Sketchfab_Scene",
      "nodes": [
        0
      ]
    }
  ],
  "textures": [
    {
      "sampler": 0,
      "source": 0
    },
    {
      "sampler": 0,
      "source": 1
    },
    {
      "sampler": 0,
      "source": 2
    }
  ]
}
